/* XPM */
static char * bitcoin32_xpm[] = {
"32 32 392 2",
"  	c None",
". 	c #0050D8",
"+ 	c #004ED5",
"@ 	c #004CD2",
"# 	c #004ACF",
"$ 	c #0049CC",
"% 	c #0047C8",
"& 	c #0045C5",
"* 	c #0043C2",
"= 	c #0056E1",
"- 	c #0054DE",
"; 	c #0053DC",
"> 	c #0051D9",
", 	c #004FD6",
"' 	c #004DD3",
") 	c #004BCF",
"! 	c #0041BF",
"~ 	c #003FBC",
"{ 	c #003DB9",
"] 	c #0059E7",
"^ 	c #0058E5",
"/ 	c #0057E2",
"( 	c #0055DF",
"_ 	c #003CB9",
": 	c #003BB6",
"< 	c #0039B3",
"[ 	c #005CEB",
"} 	c #005BE9",
"| 	c #0059E5",
"1 	c #003AB6",
"2 	c #0038B3",
"3 	c #0037AF",
"4 	c #005EEE",
"5 	c #005DEC",
"6 	c #0036AF",
"7 	c #0035AC",
"8 	c #0060F1",
"9 	c #005FEF",
"0 	c #0034AC",
"a 	c #0033A9",
"b 	c #0062F4",
"c 	c #0061F2",
"d 	c #0056E2",
"e 	c #0054DF",
"f 	c #0052DC",
"g 	c #0048CC",
"h 	c #0046C8",
"i 	c #0044C5",
"j 	c #0042C2",
"k 	c #0040BF",
"l 	c #003EBC",
"m 	c #0032A9",
"n 	c #0031A6",
"o 	c #0063F6",
"p 	c #0063F5",
"q 	c #005DEB",
"r 	c #055DE7",
"s 	c #0A5EE5",
"t 	c #0A5CE2",
"u 	c #0A5ADF",
"v 	c #0A59DC",
"w 	c #0A57D9",
"x 	c #0A55D5",
"y 	c #0A53D2",
"z 	c #0A51CF",
"A 	c #0A4FCC",
"B 	c #0A4DC9",
"C 	c #0A4BC6",
"D 	c #0A49C4",
"E 	c #0A47C1",
"F 	c #0A45BE",
"G 	c #0A43BA",
"H 	c #0A41B7",
"I 	c #073DB3",
"J 	c #0030A6",
"K 	c #002FA4",
"L 	c #0064F8",
"M 	c #045EE8",
"N 	c #6C9CE6",
"O 	c #BACFF0",
"P 	c #B2C9EE",
"Q 	c #B2C9ED",
"R 	c #B2C8EC",
"S 	c #B2C8EB",
"T 	c #B2C7EB",
"U 	c #B2C7EA",
"V 	c #B2C6E9",
"W 	c #B2C6E8",
"X 	c #B2C5E7",
"Y 	c #B2C4E6",
"Z 	c #B2C4E5",
"` 	c #B3C4E5",
" .	c #BAC9E6",
"..	c #C4D0E9",
"+.	c #93AADA",
"@.	c #002DA9",
"#.	c #002EA3",
"$.	c #0066FA",
"%.	c #0065F8",
"&.	c #065EE5",
"*.	c #86AAE0",
"=.	c #648FD3",
"-.	c #1659C5",
";.	c #195AC4",
">.	c #1958C2",
",.	c #1957BF",
"'.	c #1955BD",
").	c #1954BA",
"!.	c #1953B8",
"~.	c #1951B6",
"{.	c #1950B3",
"].	c #194EB0",
"^.	c #194CAE",
"/.	c #1A4BAB",
"(.	c #385FAD",
"_.	c #98ABCE",
":.	c #E2E7EF",
"<.	c #B5C4E2",
"[.	c #002AA5",
"}.	c #0034AD",
"|.	c #002DA1",
"1.	c #84A8E1",
"2.	c #5088E1",
"3.	c #0052E0",
"4.	c #0053DD",
"5.	c #0051DB",
"6.	c #004FD7",
"7.	c #004DD4",
"8.	c #004BD1",
"9.	c #0049CE",
"0.	c #0047CB",
"a.	c #0045C7",
"b.	c #0042C4",
"c.	c #0846C1",
"d.	c #426FC7",
"e.	c #B8C7E3",
"f.	c #7E97CA",
"g.	c #3258A8",
"h.	c #AFBFE0",
"i.	c #002CA5",
"j.	c #002DA0",
"k.	c #0067FB",
"l.	c #84A9E1",
"m.	c #5089E2",
"n.	c #0054E2",
"o.	c #004BD0",
"p.	c #0146C8",
"q.	c #1A55C7",
"r.	c #7899D6",
"s.	c #C3CFE6",
"t.	c #3C65B8",
"u.	c #0029A6",
"v.	c #325EBA",
"w.	c #B1C1E0",
"x.	c #002CA6",
"y.	c #002CA0",
"z.	c #0068FD",
"A.	c #85A9E1",
"B.	c #6396E3",
"C.	c #0B5DE1",
"D.	c #0357DF",
"E.	c #004DD2",
"F.	c #004ACE",
"G.	c #074CCA",
"H.	c #366BCD",
"I.	c #ABBFE2",
"J.	c #99AFD8",
"K.	c #063EAC",
"L.	c #0038B7",
"M.	c #0037B6",
"N.	c #325EB9",
"O.	c #B2C1E0",
"P.	c #002B9E",
"Q.	c #055EE5",
"R.	c #8BADE2",
"S.	c #E1E9F3",
"T.	c #93B4E9",
"U.	c #427EE0",
"V.	c #145FDC",
"W.	c #0957D9",
"X.	c #004CD0",
"Y.	c #1557CF",
"Z.	c #658ED7",
"`.	c #C4D1E8",
" +	c #4F77C3",
".+	c #0033B1",
"++	c #003FBE",
"@+	c #003AB4",
"#+	c #4068BD",
"$+	c #B0BFDF",
"%+	c #002BA6",
"&+	c #002B9D",
"*+	c #065EE6",
"=+	c #83A8E0",
"-+	c #5382CE",
";+	c #4D7ECD",
">+	c #AFC4E3",
",+	c #BACEEC",
"'+	c #6693E0",
")+	c #2365D7",
"!+	c #2B68D3",
"~+	c #9AB4E1",
"{+	c #A5BADE",
"]+	c #104AB7",
"^+	c #003CBE",
"/+	c #0042C3",
"(+	c #0843BC",
"_+	c #3B67C2",
":+	c #A1B3D9",
"<+	c #829ACF",
"[+	c #002CA8",
"}+	c #002A9D",
"|+	c #5089E1",
"1+	c #004DD9",
"2+	c #205DC1",
"3+	c #83A2D6",
"4+	c #CDD9EC",
"5+	c #CCD9EB",
"6+	c #9EB5DA",
"7+	c #0B49BB",
"8+	c #074BC9",
"9+	c #0043C4",
"0+	c #0042C1",
"a+	c #1952C2",
"b+	c #6B8DD0",
"c+	c #BDC9E3",
"d+	c #4B6EB9",
"e+	c #0029A3",
"f+	c #0037B0",
"g+	c #518AE2",
"h+	c #0055E2",
"i+	c #004FD8",
"j+	c #0045C9",
"k+	c #0043B8",
"l+	c #517AC5",
"m+	c #A8BDE0",
"n+	c #B2C6E7",
"o+	c #618BD6",
"p+	c #245DC9",
"q+	c #3366C8",
"r+	c #9EB4DD",
"s+	c #A2B5D9",
"t+	c #1142AA",
"u+	c #0031AE",
"v+	c #0044C9",
"w+	c #003CB8",
"x+	c #2357B6",
"y+	c #9AAFD5",
"z+	c #ECEFF4",
"A+	c #CED8EA",
"B+	c #A2B5D8",
"C+	c #1044AF",
"D+	c #0741B9",
"E+	c #0038B5",
"F+	c #0037B3",
"G+	c #588EE3",
"H+	c #0053E1",
"I+	c #0053DE",
"J+	c #034CCE",
"K+	c #2963CC",
"L+	c #84A0D3",
"M+	c #A9BCDD",
"N+	c #6082C1",
"O+	c #AABCDD",
"P+	c #ADBFE1",
"Q+	c #6184CD",
"R+	c #2858BF",
"S+	c #0F43B6",
"T+	c #0035AF",
"U+	c #87ABE1",
"V+	c #93B4E8",
"W+	c #2F74E3",
"X+	c #1B66E1",
"Y+	c #0959DC",
"Z+	c #004ED7",
"`+	c #1157D1",
" @	c #5180D6",
".@	c #B3C5E4",
"+@	c #7797D1",
"@@	c #0038B2",
"#@	c #0033A8",
"$@	c #2E59AF",
"%@	c #8EA4CF",
"&@	c #C5D0E5",
"*@	c #7D98D3",
"=@	c #002DAA",
"-@	c #88ABE1",
";@	c #B4C7E5",
">@	c #BECFEA",
",@	c #95B4E5",
"'@	c #578BDF",
")@	c #286ADA",
"!@	c #2A69D7",
"~@	c #7CA1DE",
"{@	c #B0C3E3",
"]@	c #2F62C0",
"^@	c #0037BB",
"/@	c #0044C6",
"(@	c #0043C3",
"_@	c #0040C0",
":@	c #0039B8",
"<@	c #002BA5",
"[@	c #3158AB",
"}@	c #BBC8E4",
"|@	c #0066FB",
"1@	c #4980D6",
"2@	c #0045C4",
"3@	c #396FC9",
"4@	c #98B1DA",
"5@	c #E6ECF3",
"6@	c #BDCDE8",
"7@	c #C9D5E8",
"8@	c #2D62C1",
"9@	c #1153CB",
"0@	c #0449C9",
"a@	c #0041C4",
"b@	c #0041C2",
"c@	c #003FBD",
"d@	c #B1C0E0",
"e@	c #5089E3",
"f@	c #0052DF",
"g@	c #1F66D9",
"h@	c #6790D3",
"i@	c #ADC2E2",
"j@	c #658BCC",
"k@	c #90ACD9",
"l@	c #B8C9E7",
"m@	c #82A3DC",
"n@	c #4E7DD3",
"o@	c #2B63CD",
"p@	c #1551C6",
"q@	c #0141BF",
"r@	c #003BBB",
"s@	c #0036B5",
"t@	c #5E91E1",
"u@	c #3E7CE2",
"v@	c #9CB9E6",
"w@	c #97B3E1",
"x@	c #0A4FC3",
"y@	c #0042C9",
"z@	c #003DBE",
"A@	c #0B49B6",
"B@	c #5B81C7",
"C@	c #A3B8DC",
"D@	c #B1C3E2",
"E@	c #7898D6",
"F@	c #4774CC",
"G@	c #2A5DC6",
"H@	c #0D45B9",
"I@	c #335EB9",
"J@	c #0064F7",
"K@	c #055EE6",
"L@	c #83A7DF",
"M@	c #9FBAE5",
"N@	c #B3C8E8",
"O@	c #5384D4",
"P@	c #0043C9",
"Q@	c #004CD3",
"R@	c #0049CD",
"S@	c #003FC2",
"T@	c #144AB0",
"U@	c #6586C5",
"V@	c #A8BADB",
"W@	c #A4B8DD",
"X@	c #6889CB",
"Y@	c #6584C5",
"Z@	c #ABBCDE",
"`@	c #035DE7",
" #	c #4E85D9",
".#	c #86A9E1",
"+#	c #165DCE",
"@#	c #004BD6",
"##	c #0046CA",
"$#	c #0031A9",
"%#	c #1D4CAC",
"&#	c #6987C3",
"*#	c #97ABD4",
"=#	c #6887C7",
"-#	c #002FA9",
";#	c #005CEA",
">#	c #0051DE",
",#	c #004BD8",
"'#	c #0054E0",
")#	c #0045C6",
"!#	c #003BB9",
"~#	c #0032AE",
"{#	c #002EA8",
"]#	c #0137AF",
"^#	c #005EEF",
"/#	c #0059E6",
"(#	c #003BB7",
"_#	c #005AE8",
"                        . + @ # $ % & *                         ",
"                  = - ; > , ' ) $ % & * ! ~ {                   ",
"              ] ^ / ( ; > , ' ) $ % & * ! ~ _ : <               ",
"            [ } | / ( ; > , ' ) $ % & * ! ~ _ 1 2 3             ",
"          4 5 } | / ( ; > , ' ) $ % & * ! ~ _ 1 2 6 7           ",
"        8 9 5 } | / ( ; > , ' ) $ % & * ! ~ _ 1 2 6 0 a         ",
"      b c 9 5 } ^ d e f . + @ # g h i j k l _ 1 2 6 0 m n       ",
"    o p c 9 q r s t u v w x y z A B C D E F G H I 6 0 m J K     ",
"    L p c 9 M N O P Q R S T U V W X X Y Z `  ...+.@.0 m J #.    ",
"  $.%.p c 9 &.*.=.-.;.>.,.'.).!.~.{.].^./.(._.:.<.[.}.m J #.|.  ",
"  $.%.p c 9 &.1.2.3.4.5.6.7.8.9.0.a.b.c.d.e.f.g.h.i.}.m J #.j.  ",
"  k.%.p c 9 &.l.m.n.( ; > , ' o.g p.q.r.s.t.u.v.w.x.}.m J #.y.  ",
"z.k.%.p c 9 &.A.B.C.D.5.. , E.F.G.H.I.J.K.L.M.N.O.x.}.m J #.y.P.",
"z.k.%.p c 9 Q.R.S.T.U.V.W.+ X.Y.Z.`. +.+++l @+#+$+%+}.m J #.y.&+",
"z.k.%.p c 9 *+=+-+;+>+,+'+)+!+~+{+]+^+/+k (+_+:+<+[+}.m J #.y.}+",
"z.k.%.p c 9 &.l.|+1+h 2+3+4+5+6+7+8+9+0+a+b+c+d+e+f+0 m J #.y.}+",
"z.k.%.p c 9 &.l.g+h+e i+j+k+l+m+n+o+p+q+r+s+t+u+< 3 0 m J #.y.}+",
"z.k.%.p c 9 &.l.m.n.( ; > + v+w+x+y+z+A+B+C+D+E+F+3 0 m J #.y.}+",
"z.k.%.p c 9 &.l.G+H+I+f > , @ J+K+L+M+N+O+P+Q+R+S+T+0 m J #.y.&+",
"z.k.%.p c 9 &.U+V+W+X+Y+Z+7.`+ @.@+@@@M.#@$@%@&@*@=@0 m J #.y.P.",
"  k.%.p c 9 &.-@;@>@,@'@)@!@~@{@]@^@/@(@_@:@<@[@}@%+}.m J #.y.  ",
"  |@%.p c 9 *+=+1@2@3@4@5@6@7@8@9@0@a@b@k c@E+v.d@x.}.m J #.j.  ",
"  $.%.p c 9 &.l.e@f@g@h@i@j@k@l@m@n@o@p@q@r@s@v.w.x.}.m J #.|.  ",
"    %.p c 9 &.A.t@u@v@w@x@y@z@A@B@C@D@E@F@G@H@I@O.%+}.m J #.    ",
"    J@p c 9 K@L@M@N@O@P@6., Q@R@S@F+T@U@V@W@X@Y@Z@%+}.m J K     ",
"      b c 9 `@ #.#+#@#; > , ' o.$ ##b.L.$#%#&#*#=#-#0 m n       ",
"        8 9 ;#>#,#'#( ; > , ' o.$ % )#(@_@!#~#x.{#]#0 m         ",
"          ^#5 } /#/ ( ; > , ' ) $ % & * ! c@{ (#< 6 0           ",
"            [ } | / ( ; > , ' ) $ % & * ! ~ _ 1 2 6             ",
"              _#^ / ( ; > , ' ) $ % & * ! ~ { 1 <               ",
"                  d ( f . , ' o.$ % & * ! ~ {                   ",
"                        . + @ # $ % & *                         "};
