/* XPM */
static char * bitcoin16_xpm[] = {
"16 16 145 2",
"  	c None",
". 	c #0053DD",
"+ 	c #0050D7",
"@ 	c #004BD1",
"# 	c #0048CA",
"$ 	c #0044C4",
"% 	c #0040BE",
"& 	c #005BE9",
"* 	c #0058E3",
"= 	c #0054DE",
"- 	c #0050D8",
"; 	c #004CD1",
"> 	c #003CB8",
", 	c #0038B2",
"' 	c #005FEF",
") 	c #005CEB",
"! 	c #0058E4",
"~ 	c #003FBE",
"{ 	c #003BB8",
"] 	c #0037B1",
"^ 	c #0034AB",
"/ 	c #0063F5",
"( 	c #0060F1",
"_ 	c #015DEA",
": 	c #035AE3",
"< 	c #0255DD",
"[ 	c #0251D7",
"} 	c #024DD0",
"| 	c #0249CA",
"1 	c #0245C4",
"2 	c #0341BE",
"3 	c #043FB8",
"4 	c #0239B2",
"5 	c #0033AB",
"6 	c #0030A5",
"7 	c #0064F6",
"8 	c #0160F1",
"9 	c #3C7FE5",
"0 	c #7FA5DF",
"a 	c #6A94D9",
"b 	c #6A92D6",
"c 	c #6A90D3",
"d 	c #6A8ED0",
"e 	c #6B8DCC",
"f 	c #7492CB",
"g 	c #B0BFDE",
"h 	c #5D7FC9",
"i 	c #002FAA",
"j 	c #0067FB",
"k 	c #0064F7",
"l 	c #4281E4",
"m 	c #2B71E1",
"n 	c #0051DC",
"o 	c #004ED6",
"p 	c #004ACF",
"q 	c #0148CA",
"r 	c #1E58C6",
"s 	c #7997D1",
"t 	c #2F5AB2",
"u 	c #6483C8",
"v 	c #002FA5",
"w 	c #002C9F",
"x 	c #0067FC",
"y 	c #4382E4",
"z 	c #75A3E8",
"A 	c #105DDC",
"B 	c #0553D7",
"C 	c #0952D1",
"D 	c #4D7DD4",
"E 	c #6C8ECF",
"F 	c #003CB6",
"G 	c #0D44B5",
"H 	c #4281E3",
"I 	c #417AD5",
"J 	c #6893D8",
"K 	c #739BDE",
"L 	c #80A2DD",
"M 	c #3C6DC7",
"N 	c #0043C2",
"O 	c #1C54C2",
"P 	c #7390CE",
"Q 	c #2451B5",
"R 	c #0032AB",
"S 	c #002B9F",
"T 	c #2A72E2",
"U 	c #004FDB",
"V 	c #004BCB",
"W 	c #4273CA",
"X 	c #799AD4",
"Y 	c #7496D8",
"Z 	c #7F9AD1",
"` 	c #0940B2",
" .	c #0037B2",
"..	c #4282E4",
"+.	c #3F7EE2",
"@.	c #0758DD",
"#.	c #0755D9",
"$.	c #1257D0",
"%.	c #6B90D3",
"&.	c #5078C5",
"*.	c #6687C8",
"=.	c #6C8CCD",
"-.	c #2352BA",
";.	c #7BA1DD",
">.	c #769DDC",
",.	c #6996E0",
"'.	c #85A4D9",
").	c #1653C3",
"!.	c #0145C5",
"~.	c #003ABA",
"{.	c #083CAC",
"].	c #6B89CA",
"^.	c #002CA0",
"/.	c #3577E0",
"(.	c #5E8EDC",
"_.	c #5885D1",
":.	c #5D87D1",
"<.	c #6F94D5",
"[.	c #4D7AD1",
"}.	c #0F49BE",
"|.	c #1348B7",
"1.	c #6685C8",
"2.	c #367AE2",
"3.	c #85A8E1",
"4.	c #165DD3",
"5.	c #004CD6",
"6.	c #0048CF",
"7.	c #0041C2",
"8.	c #2257BC",
"9.	c #6889C9",
"0.	c #6786C7",
"a.	c #5074C2",
"b.	c #0030AA",
"c.	c #0030A6",
"d.	c #005FF0",
"e.	c #0058E6",
"f.	c #0051DE",
"g.	c #004CD2",
"h.	c #0048CB",
"i.	c #0042C5",
"j.	c #003BBB",
"k.	c #0035B1",
"l.	c #0033AD",
"m.	c #0034AC",
"n.	c #003CB9",
"          . + @ # $ %           ",
"      & * = - ; # $ % > ,       ",
"    ' ) ! = - ; # $ ~ { ] ^     ",
"  / ( _ : < [ } | 1 2 3 4 5 6   ",
"  7 8 9 0 a b c d e f g h i 6   ",
"j k 8 l m n o p q r s t u i v w ",
"x k 8 y z A B C D E F G u i v w ",
"x k 8 H I J K L M N O P Q R v S ",
"x k 8 l T U V W X Y Z `  .5 v S ",
"x k 8 ..+.@.#.$.%.&.*.=.-.R v w ",
"j k 8 y ;.>.,.'.).!.~.{.].i v ^.",
"  k 8 H /.(._.:.<.[.}.|.1.i 6   ",
"  / 8 2.3.4.5.6.7.8.9.0.a.b.c.  ",
"    d.e.f.. - g.h.i.j.k.l.m.    ",
"      & ! = + ; # $ % n.,       ",
"          . + @ # $ %           "};
